<svg xmlns="http://www.w3.org/2000/svg" viewBox="0 0 1000 460" role="img" aria-label="Peta Indonesia">
  <title>Peta Indonesia (representasi sederhana)</title>
  <style><![CDATA[
    .region { fill: #d1d5db; stroke: #ffffff; stroke-width: 1.2; transition: fill .2s; cursor: pointer; }
    .region:hover { fill: #111111; }
    .label { font-size: 11px; fill: #111111; font-weight: 700; pointer-events: none; }
  ]]></style>
  <!-- Simplified, schematic regions of Indonesia. Each region is clickable
       and labelled with its province group. -->
  <g font-family="-apple-system, Segoe UI, Roboto, Arial, sans-serif">
    <!-- Sumatera -->
    <path class="region" data-province="Sumatera Utara" d="M40,90 L150,70 L180,150 L120,210 L60,200 Z" />
    <text class="label" x="100" y="150">Sumatera Utara</text>
    <path class="region" data-province="Sumatera Selatan" d="M120,210 L230,180 L260,260 L180,300 L80,280 Z" />
    <text class="label" x="170" y="240">Sumatera Selatan</text>
    <path class="region" data-province="Lampung" d="M180,300 L280,280 L300,340 L210,360 Z" />
    <text class="label" x="230" y="330">Lampung</text>

    <!-- Java -->
    <path class="region" data-province="DKI Jakarta" d="M300,340 L360,330 L370,360 L310,370 Z" />
    <text class="label" x="320" y="355">DKI Jakarta</text>
    <path class="region" data-province="Jawa Barat" d="M340,340 L430,330 L440,370 L350,380 Z" />
    <text class="label" x="380" y="365">Jawa Barat</text>
    <path class="region" data-province="Jawa Tengah" d="M430,330 L520,330 L530,370 L440,380 Z" />
    <text class="label" x="470" y="360">Jawa Tengah</text>
    <path class="region" data-province="DI Yogyakarta" d="M510,360 L555,355 L565,385 L515,388 Z" />
    <text class="label" x="525" y="378">DIY</text>
    <path class="region" data-province="Jawa Timur" d="M530,330 L630,330 L640,375 L540,385 Z" />
    <text class="label" x="580" y="360">Jawa Timur</text>

    <!-- Bali / NTB / NTT -->
    <path class="region" data-province="Bali" d="M640,355 L680,350 L685,375 L645,380 Z" />
    <text class="label" x="655" y="370">Bali</text>
    <path class="region" data-province="Nusa Tenggara Barat" d="M700,350 L760,345 L770,380 L705,385 Z" />
    <text class="label" x="710" y="370">NTB</text>
    <path class="region" data-province="Nusa Tenggara Timur" d="M780,350 L880,345 L890,390 L785,395 Z" />
    <text class="label" x="810" y="375">NTT</text>

    <!-- Kalimantan -->
    <path class="region" data-province="Kalimantan Barat" d="M310,180 L420,170 L420,260 L320,270 Z" />
    <text class="label" x="350" y="220">Kalimantan Barat</text>
    <path class="region" data-province="Kalimantan Tengah" d="M420,170 L500,170 L510,260 L420,260 Z" />
    <text class="label" x="445" y="220">Kalteng</text>
    <path class="region" data-province="Kalimantan Selatan" d="M510,200 L570,200 L575,265 L510,260 Z" />
    <text class="label" x="525" y="240">Kalsel</text>
    <path class="region" data-province="Kalimantan Timur" d="M500,90 L590,90 L600,200 L510,200 Z" />
    <text class="label" x="525" y="160">Kaltim</text>

    <!-- Sulawesi -->
    <path class="region" data-province="Sulawesi Utara" d="M650,90 L720,90 L725,140 L660,150 Z" />
    <text class="label" x="660" y="120">Sulawesi Utara</text>
    <path class="region" data-province="Sulawesi Tengah" d="M650,150 L720,150 L725,220 L655,225 Z" />
    <text class="label" x="660" y="190">Sulteng</text>
    <path class="region" data-province="Sulawesi Selatan" d="M655,225 L720,220 L725,290 L660,290 Z" />
    <text class="label" x="660" y="260">Sulsel</text>

    <!-- Maluku -->
    <path class="region" data-province="Maluku" d="M770,150 L830,150 L835,220 L775,225 Z" />
    <text class="label" x="780" y="190">Maluku</text>
    <path class="region" data-province="Maluku Utara" d="M770,90 L825,90 L830,140 L775,145 Z" />
    <text class="label" x="780" y="120">Maluku Utara</text>

    <!-- Papua -->
    <path class="region" data-province="Papua Barat" d="M850,150 L920,150 L925,230 L855,230 Z" />
    <text class="label" x="860" y="195">Papua Barat</text>
    <path class="region" data-province="Papua" d="M925,150 L990,150 L990,260 L925,260 Z" />
    <text class="label" x="935" y="210">Papua</text>

    <!-- Aceh -->
    <path class="region" data-province="Aceh" d="M30,30 L90,40 L70,90 L20,80 Z" />
    <text class="label" x="40" y="65">Aceh</text>

    <!-- Riau -->
    <path class="region" data-province="Riau" d="M150,140 L240,130 L230,180 L140,200 Z" />
    <text class="label" x="170" y="165">Riau</text>
  </g>
</svg>
